# https://github.com/mikedh/trimesh
mtllib chefs_knife.mtl
usemtl chefs_knife_material
v -0.00248651 -0.00392640 0.00211391
v 0.00000000 -0.00392640 0.00776877
v -0.00268136 -0.00392640 0.00644019
v -0.00028540 -0.00392640 0.01275722
v -0.00309421 -0.00392640 0.01617256
v -0.00289936 -0.00392640 0.01252518
v -0.00248651 0.00392640 0.00211391
v -0.00268136 0.00392639 0.00644019
v 0.00000000 0.00392639 0.00776877
v -0.00028540 0.00392639 0.01275722
v -0.00289936 0.00392639 0.01252518
v -0.00309421 0.00392639 0.01617256
v -0.00717377 -0.00392640 0.01254215
v -0.00690009 -0.00392640 0.00449989
v -0.10115874 -0.00392639 -0.01488110
v -0.10300480 -0.00392639 -0.01771204
v -0.09711021 -0.00392639 -0.01704712
v -0.09631674 -0.00392639 -0.01566958
v -0.09994702 -0.00392639 -0.00950239
v -0.09484304 -0.00392639 -0.01027981
v -0.09908168 -0.00392640 -0.00309308
v -0.09354539 -0.00392640 -0.00410982
v -0.09289295 -0.00392640 0.01771204
v -0.10055113 -0.00392640 0.01771204
v -0.09991300 -0.00392640 0.01303775
v -0.09274644 -0.00392640 0.01300423
v -0.09258250 -0.00392640 0.00618667
v -0.09037504 -0.00392639 0.00619577
v -0.09038797 -0.00392640 0.01302013
v -0.08801455 -0.00392639 0.00627302
v -0.08801552 -0.00392640 0.01301279
v -0.08801552 -0.00392640 0.01301279
v -0.08801455 -0.00392639 0.00627302
v -0.05720240 -0.00392640 0.00359158
v -0.05724933 -0.00392640 0.01229103
v -0.04447878 -0.00392640 0.00326042
v -0.04448572 -0.00392640 0.01221034
v -0.03484075 -0.00392639 0.00338740
v -0.03490723 -0.00392640 0.01227020
v -0.02062537 -0.00392640 0.00419181
v -0.02088635 -0.00392640 0.01233782
v -0.00971828 -0.00392640 0.00403266
v -0.01008088 -0.00392640 0.01250726
v -0.00665550 -0.00392640 -0.00253518
v -0.00741837 -0.00392640 0.01751063
v -0.09243598 -0.00392640 -0.00129160
v -0.09036348 -0.00392639 0.00139733
v -0.09039953 -0.00392640 0.01771204
v -0.08801368 -0.00392639 0.00180295
v -0.08801640 -0.00392640 0.01771204
v -0.08801368 -0.00392639 0.00180295
v -0.05716045 -0.00392640 -0.00309508
v -0.05729128 -0.00392640 0.01771204
v -0.08801640 -0.00392640 0.01771204
v -0.04447259 -0.00392640 -0.00355989
v -0.04449192 -0.00392640 0.01771204
v -0.03478133 -0.00392639 -0.00337298
v -0.03496665 -0.00392640 0.01771204
v -0.02039213 -0.00392640 -0.00173322
v -0.02111959 -0.00392640 0.01771204
v -0.00939423 -0.00392640 -0.00411847
v -0.01040494 -0.00392640 0.01771204
v -0.09931311 -0.00392640 0.00618731
v -0.10300480 -0.00392639 -0.01771204
v -0.10115874 -0.00392639 -0.01488110
v -0.10270920 -0.00059680 -0.01488110
v -0.10455526 -0.00059680 -0.01771205
v -0.09994702 -0.00392639 -0.00950239
v -0.10149748 -0.00059680 -0.00950239
v -0.09908168 -0.00392640 -0.00309308
v -0.10063214 -0.00059680 -0.00309308
v -0.09931311 -0.00392640 0.00618731
v -0.10086356 -0.00059680 0.00618731
v -0.09991300 -0.00392640 0.01303775
v -0.10055113 -0.00392640 0.01771204
v -0.10210158 -0.00059680 0.01771204
v -0.10146345 -0.00059680 0.01303775
v -0.09711021 -0.00392639 -0.01704712
v -0.10300480 -0.00392639 -0.01771204
v -0.10455526 -0.00059680 -0.01771205
v -0.09711021 -0.00059680 -0.01704712
v -0.09631674 -0.00392639 -0.01566958
v -0.09631674 -0.00059680 -0.01566958
v -0.09036348 -0.00392639 0.00139733
v -0.09243598 -0.00392640 -0.00129160
v -0.09243598 -0.00059680 -0.00129160
v -0.09036348 -0.00059680 0.00139733
v -0.01040494 -0.00392640 0.01771204
v -0.00741837 -0.00392640 0.01751063
v -0.00741837 -0.00059680 0.01751063
v -0.01040494 -0.00059680 0.01771204
v -0.08801368 -0.00392639 0.00180295
v -0.08801368 -0.00059680 0.00180295
v -0.05716045 -0.00392640 -0.00309508
v -0.08801368 -0.00392639 0.00180295
v -0.08801368 -0.00059680 0.00180295
v -0.05716045 -0.00059680 -0.00309508
v -0.04447259 -0.00392640 -0.00355989
v -0.04447259 -0.00059680 -0.00355989
v -0.03478133 -0.00392639 -0.00337298
v -0.03478133 -0.00059680 -0.00337298
v -0.02039213 -0.00392640 -0.00173322
v -0.02039213 -0.00059680 -0.00173322
v -0.00939423 -0.00392640 -0.00411847
v -0.00939423 -0.00059680 -0.00411847
v -0.00665550 -0.00392640 -0.00253518
v -0.00665550 -0.00059680 -0.00253518
v -0.00248651 -0.00392640 0.00211391
v -0.00248651 -0.00059680 0.00211391
v 0.00000000 -0.00392640 0.00776877
v 0.00000000 -0.00059680 0.00776877
v -0.00028540 -0.00392640 0.01275722
v -0.00028540 -0.00059680 0.01275722
v -0.00309421 -0.00392640 0.01617256
v -0.00309421 -0.00059680 0.01617256
v -0.00309421 -0.00392640 0.01617256
v -0.00309421 -0.00059680 0.01617256
v -0.02111959 -0.00392640 0.01771204
v -0.02111959 -0.00059680 0.01771204
v -0.03496665 -0.00392640 0.01771204
v -0.03496665 -0.00059680 0.01771204
v -0.04449192 -0.00392640 0.01771204
v -0.04449192 -0.00059680 0.01771204
v -0.05729128 -0.00392640 0.01771204
v -0.05729128 -0.00059680 0.01771204
v -0.08801640 -0.00392640 0.01771204
v -0.08801640 -0.00059680 0.01771204
v -0.09039953 -0.00392640 0.01771204
v -0.08801640 -0.00392640 0.01771204
v -0.08801640 -0.00059680 0.01771204
v -0.09039953 -0.00059680 0.01771204
v -0.09289295 -0.00392640 0.01771204
v -0.09289295 -0.00059680 0.01771204
v -0.10055113 -0.00392640 0.01771204
v -0.10210158 -0.00059680 0.01771204
v -0.09484304 -0.00392639 -0.01027981
v -0.09484304 -0.00059680 -0.01027981
v -0.09354539 -0.00392640 -0.00410982
v -0.09354539 -0.00059680 -0.00410982
v -0.10063214 -0.00059680 -0.00309308
v -0.10086356 -0.00059680 0.00618731
v -0.10086356 0.00059676 0.00618731
v -0.10063214 0.00059676 -0.00309308
v -0.10146345 -0.00059680 0.01303775
v -0.10210158 -0.00059680 0.01771204
v -0.10210158 0.00059676 0.01771204
v -0.10146345 0.00059676 0.01303775
v -0.09631674 -0.00059680 -0.01566958
v -0.09711021 -0.00059680 -0.01704712
v -0.09711021 0.00059676 -0.01704711
v -0.09631674 0.00059676 -0.01566958
v -0.09036348 -0.00059680 0.00139733
v -0.09243598 -0.00059680 -0.00129160
v -0.09243598 0.00059676 -0.00129160
v -0.09036348 0.00059676 0.00139733
v -0.05716045 -0.00059680 -0.00309508
v -0.08801368 -0.00059680 0.00180295
v -0.08801368 0.00059676 0.00180295
v -0.05716045 0.00059676 -0.00309508
v -0.04447259 -0.00059680 -0.00355989
v -0.04447259 0.00059676 -0.00355989
v -0.02039213 -0.00059680 -0.00173322
v -0.03478133 -0.00059680 -0.00337298
v -0.03478133 0.00059676 -0.00337298
v -0.02039213 0.00059676 -0.00173322
v 0.00000000 -0.00059680 0.00776877
v -0.00248651 -0.00059680 0.00211391
v -0.00248651 0.00059676 0.00211391
v 0.00000000 0.00059676 0.00776877
v -0.00741837 -0.00059680 0.01751063
v -0.00309421 -0.00059680 0.01617256
v -0.00309421 0.00059676 0.01617256
v -0.00741837 0.00059676 0.01751063
v -0.00309421 -0.00059680 0.01617256
v -0.00028540 -0.00059680 0.01275722
v -0.00028540 0.00059676 0.01275722
v -0.00309421 0.00059676 0.01617256
v -0.04449192 -0.00059680 0.01771204
v -0.03496665 -0.00059680 0.01771204
v -0.03496665 0.00059676 0.01771204
v -0.04449192 0.00059676 0.01771204
v -0.05729128 -0.00059680 0.01771204
v -0.05729128 0.00059676 0.01771204
v -0.09039953 -0.00059680 0.01771204
v -0.08801640 -0.00059680 0.01771204
v -0.08801640 0.00059676 0.01771204
v -0.09039953 0.00059676 0.01771204
v -0.09484304 -0.00059680 -0.01027981
v -0.09484304 0.00059677 -0.01027981
v -0.09354539 -0.00059680 -0.00410982
v -0.09354539 0.00059676 -0.00410982
v -0.23959117 -0.00056719 0.01214573
v -0.24343481 -0.00016687 -0.00140860
v -0.22663140 -0.00016687 -0.00727329
v -0.22844618 -0.00056719 0.01344033
v -0.17161721 -0.00016687 -0.01535160
v -0.10937437 -0.00016687 -0.01691895
v -0.11231366 -0.00056719 0.01753975
v -0.15364805 -0.00056719 0.01715519
v -0.18926084 -0.00016687 -0.01377566
v -0.18365871 -0.00056719 0.01627291
v -0.20776041 -0.00016687 -0.01116322
v -0.20948812 -0.00056719 0.01504729
v -0.25252999 -0.00056719 0.01017497
v -0.25561073 -0.00016687 0.00483492
v -0.25988531 -0.00016687 0.00862829
v -0.26000000 -0.00016687 0.00810727
v -0.25252999 -0.00056719 0.01017497
v -0.23959117 -0.00056719 0.01214573
v -0.23959117 0.00056715 0.01214573
v -0.25252999 0.00056715 0.01017497
v -0.25561073 -0.00016687 0.00483492
v -0.26000000 -0.00016687 0.00810727
v -0.26000000 0.00016683 0.00810727
v -0.25561073 0.00016683 0.00483492
v -0.24343481 -0.00016687 -0.00140860
v -0.24343481 0.00016683 -0.00140860
v -0.11231366 -0.00056719 0.01753975
v -0.10164921 -0.00056719 0.01757345
v -0.10164921 0.00056715 0.01757345
v -0.11231366 0.00056715 0.01753975
v -0.22663140 -0.00016687 -0.00727329
v -0.22663140 0.00016683 -0.00727329
v -0.20776041 -0.00016687 -0.01116322
v -0.20776041 0.00016683 -0.01116322
v -0.18365871 -0.00056719 0.01627291
v -0.15364805 -0.00056719 0.01715519
v -0.15364805 0.00056715 0.01715519
v -0.18365871 0.00056715 0.01627291
v -0.18926084 -0.00016687 -0.01377566
v -0.18926084 0.00016683 -0.01377566
v -0.20948812 -0.00056719 0.01504729
v -0.20948812 0.00056715 0.01504729
v -0.25988531 -0.00016687 0.00862829
v -0.25988531 0.00016683 0.00862829
v -0.00717377 0.00392639 0.01254215
v -0.00690009 0.00392639 0.00449989
v -0.10115874 0.00392640 -0.01488110
v -0.09631674 0.00392640 -0.01566958
v -0.09711021 0.00392640 -0.01704712
v -0.10300480 0.00392640 -0.01771204
v -0.09994702 0.00392640 -0.00950239
v -0.09484304 0.00392640 -0.01027981
v -0.09908168 0.00392640 -0.00309308
v -0.09354539 0.00392640 -0.00410981
v -0.09289295 0.00392639 0.01771205
v -0.09274644 0.00392639 0.01300423
v -0.09991300 0.00392639 0.01303775
v -0.10055113 0.00392639 0.01771205
v -0.09038797 0.00392639 0.01302013
v -0.09037504 0.00392639 0.00619577
v -0.09258250 0.00392639 0.00618667
v -0.08801552 0.00392639 0.01301279
v -0.08801455 0.00392639 0.00627303
v -0.08801552 0.00392639 0.01301279
v -0.05724933 0.00392639 0.01229103
v -0.05720240 0.00392640 0.00359158
v -0.08801455 0.00392639 0.00627303
v -0.04448572 0.00392639 0.01221034
v -0.04447878 0.00392640 0.00326042
v -0.03490723 0.00392639 0.01227020
v -0.03484075 0.00392639 0.00338741
v -0.02088635 0.00392639 0.01233782
v -0.02062537 0.00392639 0.00419181
v -0.01008088 0.00392639 0.01250726
v -0.00971828 0.00392639 0.00403266
v -0.00665550 0.00392640 -0.00253518
v -0.00741837 0.00392639 0.01751063
v -0.09036348 0.00392639 0.00139733
v -0.09243598 0.00392640 -0.00129160
v -0.09039953 0.00392639 0.01771205
v -0.08801368 0.00392639 0.00180295
v -0.08801640 0.00392639 0.01771205
v -0.05716045 0.00392640 -0.00309508
v -0.08801368 0.00392639 0.00180295
v -0.08801640 0.00392639 0.01771205
v -0.05729128 0.00392639 0.01771205
v -0.04447259 0.00392640 -0.00355989
v -0.04449192 0.00392639 0.01771205
v -0.03478133 0.00392639 -0.00337298
v -0.03496665 0.00392639 0.01771205
v -0.02039213 0.00392640 -0.00173322
v -0.02111959 0.00392639 0.01771205
v -0.00939423 0.00392640 -0.00411847
v -0.01040494 0.00392639 0.01771205
v -0.09931311 0.00392639 0.00618731
v -0.10300480 0.00392640 -0.01771204
v -0.10455526 0.00059677 -0.01771204
v -0.10270920 0.00059677 -0.01488110
v -0.10115874 0.00392640 -0.01488110
v -0.10149748 0.00059676 -0.00950239
v -0.09994702 0.00392640 -0.00950239
v -0.10063214 0.00059676 -0.00309308
v -0.09908168 0.00392640 -0.00309308
v -0.10086356 0.00059676 0.00618731
v -0.09931311 0.00392639 0.00618731
v -0.09991300 0.00392639 0.01303775
v -0.10146345 0.00059676 0.01303775
v -0.10210158 0.00059676 0.01771204
v -0.10055113 0.00392639 0.01771205
v -0.09711021 0.00392640 -0.01704712
v -0.09711021 0.00059676 -0.01704711
v -0.10455526 0.00059677 -0.01771204
v -0.10300480 0.00392640 -0.01771204
v -0.09631674 0.00392640 -0.01566958
v -0.09631674 0.00059676 -0.01566958
v -0.09036348 0.00392639 0.00139733
v -0.09036348 0.00059676 0.00139733
v -0.09243598 0.00059676 -0.00129160
v -0.09243598 0.00392640 -0.00129160
v -0.01040494 0.00392639 0.01771205
v -0.01040494 0.00059676 0.01771204
v -0.00741837 0.00059676 0.01751063
v -0.00741837 0.00392639 0.01751063
v -0.08801368 0.00392639 0.00180295
v -0.08801368 0.00059676 0.00180295
v -0.05716045 0.00392640 -0.00309508
v -0.05716045 0.00059676 -0.00309508
v -0.08801368 0.00059676 0.00180295
v -0.08801368 0.00392639 0.00180295
v -0.04447259 0.00392640 -0.00355989
v -0.04447259 0.00059676 -0.00355989
v -0.03478133 0.00392639 -0.00337298
v -0.03478133 0.00059676 -0.00337298
v -0.02039213 0.00392640 -0.00173322
v -0.02039213 0.00059676 -0.00173322
v -0.00939423 0.00392640 -0.00411847
v -0.00939423 0.00059676 -0.00411847
v -0.00665550 0.00392640 -0.00253518
v -0.00665550 0.00059676 -0.00253518
v -0.00248651 0.00392640 0.00211391
v -0.00248651 0.00059676 0.00211391
v 0.00000000 0.00392639 0.00776877
v 0.00000000 0.00059676 0.00776877
v -0.00028540 0.00392639 0.01275722
v -0.00028540 0.00059676 0.01275722
v -0.00309421 0.00059676 0.01617256
v -0.00309421 0.00392639 0.01617256
v -0.00309421 0.00392639 0.01617256
v -0.00309421 0.00059676 0.01617256
v -0.02111959 0.00392639 0.01771205
v -0.02111959 0.00059676 0.01771204
v -0.03496665 0.00392639 0.01771205
v -0.03496665 0.00059676 0.01771204
v -0.04449192 0.00392639 0.01771205
v -0.04449192 0.00059676 0.01771204
v -0.05729128 0.00392639 0.01771205
v -0.05729128 0.00059676 0.01771204
v -0.08801640 0.00392639 0.01771205
v -0.08801640 0.00059676 0.01771204
v -0.09039953 0.00392639 0.01771205
v -0.09039953 0.00059676 0.01771204
v -0.08801640 0.00059676 0.01771204
v -0.08801640 0.00392639 0.01771205
v -0.09289295 0.00392639 0.01771205
v -0.09289295 0.00059676 0.01771204
v -0.10055113 0.00392639 0.01771205
v -0.10210158 0.00059676 0.01771204
v -0.09484304 0.00392640 -0.01027981
v -0.09484304 0.00059677 -0.01027981
v -0.09354539 0.00392640 -0.00410981
v -0.09354539 0.00059676 -0.00410982
v -0.10455526 0.00059677 -0.01771204
v -0.10455526 -0.00059680 -0.01771205
v -0.10270920 -0.00059680 -0.01488110
v -0.10270920 0.00059677 -0.01488110
v -0.10149748 -0.00059680 -0.00950239
v -0.10149748 0.00059676 -0.00950239
v -0.09711021 0.00059676 -0.01704711
v -0.09711021 -0.00059680 -0.01704712
v -0.01040494 0.00059676 0.01771204
v -0.01040494 -0.00059680 0.01771204
v -0.00939423 0.00059676 -0.00411847
v -0.00939423 -0.00059680 -0.00411847
v -0.00665550 0.00059676 -0.00253518
v -0.00665550 -0.00059680 -0.00253518
v -0.02111959 0.00059676 0.01771204
v -0.02111959 -0.00059680 0.01771204
v -0.09289295 0.00059676 0.01771204
v -0.09289295 -0.00059680 0.01771204
v -0.23959117 0.00056715 0.01214573
v -0.22844618 0.00056715 0.01344033
v -0.22663140 0.00016683 -0.00727329
v -0.24343481 0.00016683 -0.00140860
v -0.17161721 0.00016683 -0.01535160
v -0.15364805 0.00056715 0.01715519
v -0.11231366 0.00056715 0.01753975
v -0.10937437 0.00016683 -0.01691894
v -0.18926084 0.00016683 -0.01377566
v -0.18365871 0.00056715 0.01627291
v -0.20776041 0.00016683 -0.01116322
v -0.20948812 0.00056715 0.01504729
v -0.25561073 0.00016683 0.00483492
v -0.25252999 0.00056715 0.01017497
v -0.26000000 0.00016683 0.00810727
v -0.25988531 0.00016683 0.00862829
v -0.10418277 0.00056716 -0.01756171
v -0.10418277 -0.00056719 -0.01756171
v -0.10937437 -0.00016687 -0.01691895
v -0.10937437 0.00016683 -0.01691894
v -0.22844618 -0.00056719 0.01344033
v -0.22844618 0.00056715 0.01344033
v -0.17161721 0.00016683 -0.01535160
v -0.17161721 -0.00016687 -0.01535160
v -0.25988531 0.00016683 0.00862829
v -0.25988531 -0.00016687 0.00862829
v -0.10418277 -0.00056719 -0.01756171
v -0.09829590 -0.00056719 -0.00945377
v -0.09806957 -0.00056719 0.01062759
v -0.10164921 -0.00056719 0.01757345
v -0.10164921 0.00056715 0.01757345
v -0.09806957 0.00056715 0.01062759
v -0.09829590 0.00056716 -0.00945377
v -0.10418277 0.00056716 -0.01756171
vn -0.00000012 -1.00000000 -0.00000001
vn -0.00000049 -1.00000000 0.00000011
vn -0.00000030 -1.00000000 0.00000002
vn -0.00000024 -1.00000000 -0.00000011
vn -0.00000019 -1.00000000 -0.00000031
vn -0.00000016 -1.00000000 -0.00000015
vn -0.00000009 1.00000000 0.00000025
vn -0.00000011 1.00000000 0.00000034
vn -0.00000014 1.00000000 0.00000044
vn -0.00000008 1.00000000 0.00000022
vn -0.00000011 1.00000000 0.00000017
vn -0.00000017 1.00000000 -0.00000007
vn -0.00000007 -1.00000000 -0.00000006
vn 0.00000000 -1.00000000 0.00000000
vn -0.00000011 -1.00000000 -0.00000020
vn -0.00000019 -1.00000000 -0.00000035
vn -0.00000019 -1.00000000 -0.00000035
vn -0.00000008 -1.00000000 -0.00000015
vn -0.00000002 -1.00000000 -0.00000015
vn -0.00000003 -1.00000000 -0.00000016
vn -0.00000002 -1.00000000 -0.00000014
vn -0.00000002 -1.00000000 -0.00000014
vn 0.00000020 -1.00000000 -0.00000010
vn 0.00000000 -1.00000000 0.00000000
vn -0.00000000 -1.00000000 -0.00000013
vn 0.00000031 -1.00000000 -0.00000019
vn 0.00000044 -1.00000000 -0.00000014
vn 0.00000044 -1.00000000 -0.00000014
vn 0.00000031 -1.00000000 -0.00000029
vn -0.00000002 -1.00000000 -0.00000011
vn -0.00000001 -1.00000000 -0.00000030
vn -0.00000001 -1.00000000 -0.00000030
vn -0.00000002 -1.00000000 -0.00000011
vn -0.00000003 -1.00000000 -0.00000003
vn 0.00000001 -1.00000000 -0.00000017
vn 0.00000008 -1.00000000 -0.00000003
vn 0.00000004 -1.00000000 -0.00000007
vn 0.00000003 -1.00000000 -0.00000006
vn 0.00000001 -1.00000000 -0.00000006
vn -0.00000005 -1.00000000 -0.00000003
vn -0.00000002 -1.00000000 -0.00000003
vn 0.00000000 -1.00000000 0.00000000
vn 0.00000000 -1.00000000 0.00000000
vn 0.00000000 -1.00000000 0.00000000
vn -0.00000011 -1.00000000 -0.00000010
vn 0.00000018 -1.00000000 0.00000000
vn 0.00000058 -1.00000000 0.00000001
vn 0.00000020 -1.00000000 -0.00000031
vn -0.00000003 -1.00000000 -0.00000000
vn -0.00000000 -1.00000000 -0.00000040
vn -0.00000003 -1.00000000 -0.00000000
vn -0.00000003 -1.00000000 -0.00000000
vn 0.00000004 -1.00000000 -0.00000028
vn -0.00000000 -1.00000000 -0.00000040
vn 0.00000010 -1.00000000 0.00000000
vn 0.00000004 -1.00000000 -0.00000009
vn 0.00000004 -1.00000000 -0.00000000
vn 0.00000000 -1.00000000 0.00000000
vn -0.00000006 -1.00000000 -0.00000000
vn 0.00000000 -1.00000000 0.00000000
vn 0.00000000 -1.00000000 0.00000000
vn 0.00000000 -1.00000000 0.00000000
vn -0.00000000 -1.00000000 -0.00000015
vn -0.69916188 -0.35233393 -0.62212014
vn -0.85173475 -0.39661783 0.34240651
vn -0.84040616 -0.39134254 0.37492465
vn -0.82276135 -0.40631267 -0.39745915
vn -0.89499683 -0.41676328 0.15902530
vn -0.89444380 -0.41650578 0.16276741
vn -0.90546649 -0.42163843 0.04849198
vn -0.90537133 -0.42159413 0.05060769
vn -0.90537825 -0.42159714 -0.05045865
vn -0.90533886 -0.42157882 -0.05131126
vn -0.90195747 -0.42000417 -0.10034547
vn -0.60428994 -0.28139272 0.74542056
vn -0.76638888 -0.35687544 0.53412359
vn -0.90183720 -0.41994812 -0.10165251
vn 0.54282583 0.01297906 -0.83974500
vn -0.69916188 -0.35233393 -0.62212014
vn -0.82276135 -0.40631267 -0.39745915
vn 0.54282602 0.01297905 -0.83974487
vn 0.92309401 0.00000009 -0.38457437
vn 0.92309403 0.00000009 -0.38457433
vn 0.51631168 0.00000004 -0.85640075
vn 0.86987971 0.00000002 -0.49326392
vn 0.86987967 0.00000002 -0.49326399
vn 0.51631153 0.00000004 -0.85640085
vn 0.03366224 0.00000015 0.99943327
vn 0.18268506 0.00000022 0.98317149
vn 0.18268506 0.00000022 0.98317149
vn 0.03366224 0.00000015 0.99943327
vn 0.00674690 0.00000002 -0.99997724
vn 0.00674690 0.00000002 -0.99997724
vn -0.09687598 -0.00000007 -0.99529646
vn 0.00674690 0.00000002 -0.99997724
vn 0.00674690 0.00000002 -0.99997724
vn -0.09687598 -0.00000007 -0.99529646
vn -0.00866673 -0.00000015 -0.99996244
vn -0.00866673 -0.00000015 -0.99996244
vn 0.06632735 -0.00000007 -0.99779792
vn 0.06632735 -0.00000007 -0.99779792
vn -0.05003226 -0.00000007 -0.99874760
vn -0.05003225 -0.00000007 -0.99874760
vn 0.15467288 -0.00000015 -0.98796574
vn 0.15467279 -0.00000015 -0.98796575
vn 0.63033032 -0.00000007 -0.77632705
vn 0.63033038 -0.00000007 -0.77632700
vn 0.84047566 0.00000000 -0.54184930
vn 0.84047563 0.00000000 -0.54184934
vn 0.98410087 -0.00000000 -0.17761049
vn 0.98410086 -0.00000000 -0.17761050
vn 0.93134637 -0.00000010 0.36413451
vn 0.93134631 -0.00000010 0.36413467
vn 0.55745564 -0.00000002 0.83020673
vn 0.55745564 -0.00000002 0.83020673
vn 0.55745564 -0.00000002 0.83020673
vn 0.55745564 -0.00000002 0.83020673
vn 0.00000000 0.00000000 1.00000000
vn 0.00000000 0.00000000 1.00000000
vn 0.00000000 0.00000000 1.00000000
vn 0.00000000 0.00000000 1.00000000
vn 0.00000000 0.00000000 1.00000000
vn 0.00000000 0.00000000 1.00000000
vn 0.00000000 0.00000000 1.00000000
vn 0.00000000 0.00000000 1.00000000
vn 0.00000000 0.00000000 1.00000000
vn 0.00000000 0.00000000 1.00000000
vn 0.00000000 0.00000000 1.00000000
vn 0.00000000 0.00000000 1.00000000
vn 0.00000000 0.00000000 1.00000000
vn 0.00000000 0.00000000 1.00000000
vn 0.00000000 0.00000000 1.00000000
vn 0.00000000 0.00000000 1.00000000
vn -0.60428994 -0.28139272 0.74542056
vn -0.76638888 -0.35687544 0.53412359
vn 0.97202357 0.00000003 -0.23488334
vn 0.97202357 0.00000003 -0.23488332
vn 0.95791164 0.00000002 -0.28706321
vn 0.95791166 0.00000002 -0.28706316
vn -0.99850789 -0.00000002 0.05460766
vn -0.99842460 0.00000002 -0.05610981
vn -0.99842460 0.00000002 -0.05610981
vn -0.99850789 -0.00000002 0.05460755
vn -0.99378881 0.00000001 -0.11128250
vn -0.75341382 0.00000000 0.65754667
vn -0.75341371 0.00000000 0.65754679
vn -0.99378881 0.00000001 -0.11128249
vn 0.92309384 0.00000052 -0.38457477
vn 0.53848623 0.00000138 -0.84263431
vn 0.53848671 0.00000138 -0.84263400
vn 0.92309399 0.00000052 -0.38457443
vn 0.51631168 0.00000059 -0.85640075
vn 0.86987972 0.00000042 -0.49326390
vn 0.86987964 0.00000042 -0.49326404
vn 0.51631141 0.00000059 -0.85640091
vn -0.09687602 0.00000068 -0.99529646
vn 0.00674685 0.00000060 -0.99997724
vn 0.00674685 0.00000060 -0.99997724
vn -0.09687602 0.00000068 -0.99529646
vn -0.00866673 0.00000056 -0.99996244
vn -0.00866673 0.00000056 -0.99996244
vn -0.05003228 0.00000072 -0.99874760
vn 0.06632738 0.00000056 -0.99779791
vn 0.06632737 0.00000056 -0.99779792
vn -0.05003227 0.00000072 -0.99874760
vn 0.98410087 0.00000006 -0.17761049
vn 0.84047566 0.00000027 -0.54184930
vn 0.84047568 0.00000027 -0.54184928
vn 0.98410088 0.00000006 -0.17761040
vn 0.18268507 0.00000000 0.98317148
vn 0.55745549 0.00000000 0.83020683
vn 0.55745550 0.00000000 0.83020682
vn 0.18268503 0.00000000 0.98317149
vn 0.55745549 0.00000000 0.83020683
vn 0.93134634 -0.00000001 0.36413458
vn 0.93134634 -0.00000001 0.36413458
vn 0.55745550 0.00000000 0.83020682
vn 0.00000000 0.00000000 1.00000000
vn 0.00000000 0.00000000 1.00000000
vn 0.00000000 0.00000000 1.00000000
vn 0.00000000 0.00000000 1.00000000
vn 0.00000000 0.00000000 1.00000000
vn 0.00000000 0.00000000 1.00000000
vn 0.00000000 0.00000000 1.00000000
vn 0.00000000 0.00000000 1.00000000
vn 0.00000000 0.00000000 1.00000000
vn 0.00000000 0.00000000 1.00000000
vn 0.97202356 0.00000013 -0.23488337
vn 0.97202356 0.00000013 -0.23488337
vn 0.95791165 0.00000016 -0.28706318
vn 0.95791165 0.00000016 -0.28706319
vn -0.00488655 -0.99955899 -0.02929061
vn -0.00515365 -0.99951288 -0.03078042
vn -0.00208256 -0.99980915 -0.01942488
vn -0.00239728 -0.99979487 -0.02011145
vn -0.00016789 -0.99992257 -0.01244315
vn -0.00956732 -0.99992550 -0.00758076
vn -0.00829428 -0.99993225 -0.00816717
vn -0.00015249 -0.99992567 -0.01219129
vn -0.00032060 -0.99990886 -0.01349676
vn -0.00029631 -0.99991072 -0.01335871
vn -0.00069371 -0.99988053 -0.01544183
vn -0.00073921 -0.99987697 -0.01566846
vn -0.01603240 -0.99900917 -0.04151679
vn -0.02339252 -0.99880821 -0.04283643
vn -0.04077173 -0.99811163 -0.04594385
vn -0.04077173 -0.99811163 -0.04594385
vn -0.17777279 -0.00000031 0.98407156
vn -0.13300173 0.00000000 0.99111581
vn -0.13300173 0.00000000 0.99111581
vn -0.17777276 -0.00000031 0.98407156
vn -0.52883453 0.00000142 -0.84872495
vn -0.93703851 0.00000027 -0.34922605
vn -0.93703917 0.00000027 -0.34922427
vn -0.52883453 0.00000142 -0.84872495
vn -0.39384204 0.00000205 -0.91917814
vn -0.39384219 0.00000205 -0.91917807
vn -0.00623145 -0.00000257 0.99998058
vn -0.00315965 -0.00000172 0.99999501
vn -0.00315965 -0.00000172 0.99999501
vn -0.00623145 -0.00000257 0.99998058
vn -0.26629026 0.00000148 -0.96389289
vn -0.26629032 0.00000148 -0.96389287
vn -0.17094345 0.00000031 -0.98528084
vn -0.17094345 0.00000031 -0.98528084
vn -0.03839329 -0.00000086 0.99926271
vn -0.01934568 -0.00000257 0.99981285
vn -0.01934568 -0.00000257 0.99981285
vn -0.03839329 -0.00000086 0.99926271
vn -0.11443534 0.00000000 -0.99343070
vn -0.11443535 0.00000000 -0.99343070
vn -0.06594046 0.00000000 0.99782356
vn -0.06594046 0.00000000 0.99782356
vn -0.69609030 -0.00000075 0.71795424
vn -0.69608909 -0.00000075 0.71795541
vn -0.00000009 1.00000000 0.00000023
vn -0.00000007 1.00000000 0.00000031
vn 0.00000001 1.00000000 0.00000008
vn 0.00000002 1.00000000 0.00000010
vn 0.00000000 1.00000000 0.00000000
vn 0.00000000 1.00000000 0.00000000
vn 0.00000003 1.00000000 0.00000016
vn 0.00000003 1.00000000 0.00000016
vn 0.00000004 1.00000000 0.00000017
vn 0.00000004 1.00000000 0.00000017
vn 0.00000020 1.00000000 0.00000011
vn 0.00000031 1.00000000 0.00000013
vn 0.00000000 1.00000000 0.00000018
vn 0.00000000 1.00000000 0.00000021
vn 0.00000031 1.00000000 0.00000002
vn 0.00000043 1.00000000 0.00000012
vn 0.00000050 1.00000000 0.00000015
vn -0.00000001 1.00000000 0.00000001
vn -0.00000008 1.00000000 0.00000019
vn -0.00000001 1.00000000 0.00000001
vn 0.00000001 1.00000000 0.00000014
vn -0.00000002 1.00000000 0.00000027
vn -0.00000008 1.00000000 0.00000019
vn 0.00000005 1.00000000 0.00000024
vn 0.00000008 1.00000000 0.00000026
vn 0.00000001 1.00000000 0.00000024
vn 0.00000004 1.00000000 0.00000023
vn -0.00000001 1.00000000 0.00000025
vn -0.00000004 1.00000000 0.00000025
vn -0.00000001 1.00000000 0.00000027
vn -0.00000004 1.00000000 0.00000029
vn -0.00000009 1.00000000 0.00000025
vn -0.00000009 1.00000000 0.00000011
vn 0.00000061 1.00000000 0.00000010
vn 0.00000025 1.00000000 0.00000017
vn 0.00000020 1.00000000 -0.00000010
vn -0.00000015 1.00000000 0.00000014
vn -0.00000000 1.00000000 -0.00000020
vn -0.00000003 1.00000000 0.00000016
vn -0.00000015 1.00000000 0.00000014
vn -0.00000000 1.00000000 -0.00000020
vn 0.00000004 1.00000000 -0.00000010
vn 0.00000010 1.00000000 0.00000014
vn 0.00000004 1.00000000 0.00000009
vn 0.00000006 1.00000000 0.00000015
vn -0.00000000 1.00000000 0.00000018
vn -0.00000005 1.00000000 0.00000018
vn -0.00000000 1.00000000 0.00000018
vn -0.00000005 1.00000000 0.00000023
vn 0.00000000 1.00000000 0.00000019
vn 0.00000002 1.00000000 0.00000017
vn -0.69916433 0.35233107 -0.62211901
vn -0.82276274 0.40630878 -0.39746026
vn -0.84040758 0.39133875 0.37492543
vn -0.85173612 0.39661392 0.34240761
vn -0.89444556 0.41650183 0.16276784
vn -0.89499858 0.41675936 0.15902574
vn -0.90537308 0.42159035 0.05060783
vn -0.90546824 0.42163465 0.04849214
vn -0.90534047 0.42157536 -0.05131123
vn -0.90537987 0.42159366 -0.05045864
vn -0.90195903 0.42000081 -0.10034554
vn -0.90183873 0.41994483 -0.10165259
vn -0.76638980 0.35687218 0.53412444
vn -0.60429164 0.28139038 0.74542006
vn 0.54282577 -0.01297891 -0.83974504
vn 0.54282601 -0.01297891 -0.83974488
vn -0.82276274 0.40630878 -0.39746026
vn -0.69916433 0.35233107 -0.62211901
vn 0.92309400 -0.00000007 -0.38457439
vn 0.92309400 -0.00000007 -0.38457439
vn 0.51631164 0.00000010 -0.85640078
vn 0.51631164 0.00000010 -0.85640078
vn 0.86987970 0.00000003 -0.49326394
vn 0.86987971 0.00000003 -0.49326392
vn 0.03366224 -0.00000073 0.99943327
vn 0.03366224 -0.00000073 0.99943327
vn 0.18268510 -0.00000072 0.98317148
vn 0.18268508 -0.00000072 0.98317148
vn 0.00674682 0.00000013 -0.99997724
vn 0.00674685 0.00000013 -0.99997724
vn -0.09687598 0.00000019 -0.99529646
vn -0.09687599 0.00000019 -0.99529646
vn 0.00674685 0.00000013 -0.99997724
vn 0.00674682 0.00000013 -0.99997724
vn -0.00866674 0.00000036 -0.99996244
vn -0.00866674 0.00000036 -0.99996244
vn 0.06632735 0.00000030 -0.99779792
vn 0.06632735 0.00000030 -0.99779792
vn -0.05003227 0.00000022 -0.99874760
vn -0.05003226 0.00000022 -0.99874760
vn 0.15467292 0.00000029 -0.98796573
vn 0.15467292 0.00000029 -0.98796573
vn 0.63033038 0.00000018 -0.77632700
vn 0.63033038 0.00000018 -0.77632700
vn 0.84047563 0.00000011 -0.54184934
vn 0.84047563 0.00000011 -0.54184934
vn 0.98410087 0.00000006 -0.17761049
vn 0.98410087 0.00000006 -0.17761049
vn 0.93134637 -0.00000000 0.36413451
vn 0.93134634 -0.00000000 0.36413458
vn 0.55745571 -0.00000029 0.83020668
vn 0.55745571 -0.00000029 0.83020668
vn 0.55745571 -0.00000029 0.83020668
vn 0.55745571 -0.00000029 0.83020668
vn 0.00000000 -0.00000059 1.00000000
vn 0.00000000 -0.00000059 1.00000000
vn 0.00000000 -0.00000059 1.00000000
vn 0.00000000 -0.00000059 1.00000000
vn -0.00000000 -0.00000059 1.00000000
vn -0.00000000 -0.00000059 1.00000000
vn -0.00000000 -0.00000059 1.00000000
vn -0.00000000 -0.00000059 1.00000000
vn 0.00000000 -0.00000059 1.00000000
vn 0.00000000 -0.00000059 1.00000000
vn 0.00000000 -0.00000059 1.00000000
vn 0.00000000 -0.00000059 1.00000000
vn 0.00000000 -0.00000059 1.00000000
vn 0.00000000 -0.00000059 1.00000000
vn 0.00000000 -0.00000059 1.00000000
vn 0.00000000 -0.00000059 1.00000000
vn -0.60429164 0.28139038 0.74542006
vn -0.76638980 0.35687218 0.53412444
vn 0.97202357 0.00000001 -0.23488334
vn 0.97202356 0.00000001 -0.23488336
vn 0.95791165 0.00000004 -0.28706318
vn 0.95791165 0.00000004 -0.28706319
vn -0.85718942 0.00000136 -0.51500126
vn -0.85718857 0.00000136 -0.51500268
vn -0.92117141 -0.00000023 0.38915708
vn -0.92117137 -0.00000023 0.38915718
vn -0.98421898 -0.00000003 0.17695480
vn -0.98421898 -0.00000003 0.17695482
vn 0.53848671 0.00000138 -0.84263400
vn 0.53848623 0.00000138 -0.84263431
vn 0.03366240 0.00000000 0.99943326
vn 0.03366240 0.00000000 0.99943326
vn 0.15467292 0.00000071 -0.98796573
vn 0.15467300 0.00000071 -0.98796572
vn 0.63033051 0.00000052 -0.77632690
vn 0.63033038 0.00000052 -0.77632700
vn 0.00000000 0.00000000 1.00000000
vn 0.00000000 0.00000000 1.00000000
vn 0.00000000 0.00000000 1.00000000
vn 0.00000000 0.00000000 1.00000000
vn -0.00488665 0.99955898 -0.02929105
vn -0.00239736 0.99979486 -0.02011176
vn -0.00208261 0.99980914 -0.01942518
vn -0.00515373 0.99951287 -0.03078089
vn -0.00016787 0.99992256 -0.01244344
vn -0.00015248 0.99992567 -0.01219158
vn -0.00829457 0.99993225 -0.00816731
vn -0.00956766 0.99992549 -0.00758088
vn -0.00032059 0.99990886 -0.01349704
vn -0.00029629 0.99991072 -0.01335900
vn -0.00069370 0.99988052 -0.01544211
vn -0.00073920 0.99987696 -0.01566874
vn -0.02339293 0.99880817 -0.04283699
vn -0.01603262 0.99900914 -0.04151739
vn -0.04077264 0.99811157 -0.04594435
vn -0.04077264 0.99811157 -0.04594435
vn -0.12287007 0.00000264 -0.99242277
vn -0.12287007 0.00000264 -0.99242277
vn -0.07527127 0.00000280 -0.99716309
vn -0.07527128 0.00000280 -0.99716309
vn -0.09993463 0.00000000 0.99499400
vn -0.09993464 0.00000000 0.99499400
vn -0.05709904 0.00000148 -0.99836852
vn -0.05709904 0.00000148 -0.99836852
vn -0.69608909 -0.00000075 0.71795541
vn -0.69609030 -0.00000075 0.71795424
vn -0.01731577 -0.99984203 -0.00401105
vn -0.01731577 -0.99984203 -0.00401105
vn -0.01731577 -0.99984203 -0.00401105
vn -0.01731577 -0.99984203 -0.00401105
vn -0.01731638 0.99984201 -0.00401104
vn -0.01731638 0.99984201 -0.00401104
vn -0.01731638 0.99984201 -0.00401104
vn -0.01731638 0.99984201 -0.00401104
vt 0.02167374 0.16763067
vt 0.00678037 0.20150143
vt 0.02284082 0.19354361
vt 0.00848983 0.23138058
vt 0.02531368 0.25183731
vt 0.02414664 0.22999072
vt 0.02222009 0.35991299
vt 0.02338717 0.33399999
vt 0.00732672 0.32604218
vt 0.00903618 0.29616308
vt 0.02469295 0.29755288
vt 0.02586003 0.27570629
vt 0.04974892 0.23009235
vt 0.04810965 0.18192196
vt 0.23952423 0.42134923
vt 0.22256793 0.41029185
vt 0.22655059 0.44559860
vt 0.23480153 0.45035118
vt 0.27174103 0.42860705
vt 0.26708448 0.45917821
vt 0.31013072 0.43379021
vt 0.30404073 0.46695077
vt 0.43474638 0.47085857
vt 0.43474644 0.42498869
vt 0.40674895 0.42881083
vt 0.40654814 0.47173613
vt 0.36571324 0.47271800
vt 0.36576772 0.48593998
vt 0.40664339 0.48586261
vt 0.36623043 0.50007850
vt 0.40659940 0.50007272
vt 0.53396428 0.23291129
vt 0.53395844 0.19254243
vt 0.34940380 0.17648143
vt 0.34968489 0.22858822
vt 0.27319366 0.17449790
vt 0.27323520 0.22810495
vt 0.21546498 0.17525852
vt 0.21586317 0.22846347
vt 0.13031954 0.18007648
vt 0.13188270 0.22886848
vt 0.06498973 0.17912340
vt 0.06716153 0.22988343
vt 0.04664464 0.13978410
vt 0.05121393 0.25985193
vt 0.32092094 0.47359568
vt 0.33702672 0.48600936
vt 0.43474644 0.48579335
vt 0.33945614 0.50008374
vt 0.43474638 0.50006759
vt 0.53395319 0.16576803
vt 0.34915251 0.13643038
vt 0.34993619 0.26105833
vt 0.53396946 0.26105833
vt 0.27315652 0.13364649
vt 0.27327228 0.26105833
vt 0.21510908 0.13476598
vt 0.21621905 0.26105833
vt 0.12892249 0.14458764
vt 0.13327974 0.26105833
vt 0.06304871 0.13030076
vt 0.06910251 0.26105833
vt 0.36571717 0.43240404
vt 0.44554025 0.50354111
vt 0.46249670 0.50354111
vt 0.46249670 0.47502643
vt 0.44554025 0.47502643
vt 0.49471343 0.50354111
vt 0.49471343 0.47502643
vt 0.53310305 0.50354111
vt 0.53310305 0.47502643
vt 0.58868951 0.50354111
vt 0.58868951 0.47502631
vt 0.62972140 0.50354111
vt 0.65771890 0.50354111
vt 0.65771890 0.47502631
vt 0.62972140 0.47502631
vt 0.87851691 0.50323278
vt 0.91382366 0.50323278
vt 0.92311043 0.47471803
vt 0.87851691 0.47471809
vt 0.87026590 0.50323278
vt 0.87026590 0.47471809
vt 0.76804078 0.50323278
vt 0.78414661 0.50323278
vt 0.78414661 0.47471809
vt 0.76804078 0.47471803
vt 0.47156656 0.12687719
vt 0.48945516 0.12687719
vt 0.48945516 0.09836245
vt 0.47156656 0.09836245
vt 0.75396633 0.50323278
vt 0.75396633 0.47471803
vt 0.42245084 0.06535625
vt 0.60725158 0.06535625
vt 0.60725158 0.03684151
vt 0.42245084 0.03684151
vt 0.34645492 0.06535625
vt 0.34645492 0.03684151
vt 0.28840744 0.06535625
vt 0.28840744 0.03684151
vt 0.20222092 0.06535625
vt 0.20222092 0.03684163
vt 0.13634710 0.06535625
vt 0.13634710 0.03684151
vt 0.11994294 0.06535625
vt 0.11994294 0.03684163
vt 0.09209637 0.06535625
vt 0.09209637 0.03684163
vt 0.05822564 0.06535625
vt 0.05822571 0.03684163
vt 0.02834642 0.06535625
vt 0.02834642 0.03684163
vt 0.51535535 0.12687719
vt 0.51535535 0.09836245
vt 0.00788975 0.06535625
vt 0.00788975 0.03684163
vt 0.40738928 0.12687719
vt 0.40738928 0.09836245
vt 0.32445002 0.12687719
vt 0.32445002 0.09836245
vt 0.26739681 0.12687719
vt 0.26739681 0.09836245
vt 0.19073291 0.12687719
vt 0.19073291 0.09836245
vt 0.00669955 0.12687719
vt 0.00669955 0.09836245
vt 0.73387587 0.50326395
vt 0.74815005 0.50326395
vt 0.74815005 0.47474921
vt 0.73387587 0.47474921
vt 0.71894115 0.50326395
vt 0.71894115 0.47474921
vt 0.67307115 0.50326395
vt 0.66378438 0.47474921
vt 0.83798301 0.50323278
vt 0.83798301 0.47471809
vt 0.80102676 0.50323278
vt 0.80102676 0.47471803
vt 0.15421280 0.54207200
vt 0.20979942 0.54207188
vt 0.20979942 0.53185022
vt 0.15421280 0.53185022
vt 0.25083143 0.54207188
vt 0.27882898 0.54207188
vt 0.27882898 0.53185022
vt 0.25083143 0.53185022
vt 0.73866588 0.55583495
vt 0.74691689 0.55583495
vt 0.74691689 0.54561329
vt 0.73866588 0.54561329
vt 0.63644087 0.55583489
vt 0.65254658 0.55583495
vt 0.65254658 0.54561329
vt 0.63644087 0.54561329
vt 0.43756562 0.55583489
vt 0.62236643 0.55583489
vt 0.62236643 0.54561329
vt 0.43756562 0.54561329
vt 0.36156970 0.55583489
vt 0.36156970 0.54561329
vt 0.21733566 0.55583495
vt 0.30352223 0.55583489
vt 0.30352223 0.54561329
vt 0.21733566 0.54561329
vt 0.07334041 0.55583495
vt 0.10721108 0.55583495
vt 0.10721108 0.54561329
vt 0.07334041 0.54561329
vt 0.84595025 0.54207188
vt 0.87185049 0.54207188
vt 0.87185049 0.53185022
vt 0.84595025 0.53185022
vt 0.02300445 0.55583495
vt 0.04346112 0.55583495
vt 0.04346112 0.54561329
vt 0.02300445 0.54561329
vt 0.62389189 0.54207188
vt 0.68094516 0.54207188
vt 0.68094516 0.53185022
vt 0.62389189 0.53185022
vt 0.54722792 0.54207188
vt 0.54722792 0.53185022
vt 0.34892040 0.54207188
vt 0.36319458 0.54207188
vt 0.36319458 0.53185022
vt 0.34892040 0.53185022
vt 0.70638317 0.55583495
vt 0.70638317 0.54561329
vt 0.66942692 0.55583489
vt 0.66942692 0.54561329
vt 0.85311383 0.95963824
vt 0.87613595 0.87845230
vt 0.77548909 0.84332472
vt 0.78635901 0.96739244
vt 0.44597220 0.79493827
vt 0.07315821 0.78555036
vt 0.09076355 0.99194664
vt 0.33834291 0.98964322
vt 0.55165166 0.80437768
vt 0.51809680 0.98435867
vt 0.66245806 0.82002532
vt 0.67280644 0.97701764
vt 0.93061310 0.94783396
vt 0.94906574 0.91584885
vt 0.97466898 0.93856990
vt 0.97535598 0.93544924
vt 0.06573639 0.52900875
vt 0.14323568 0.52900875
vt 0.14323568 0.51929426
vt 0.06573639 0.51929426
vt 0.92759126 0.51043898
vt 0.95381457 0.51043892
vt 0.95381457 0.50758111
vt 0.92759126 0.50758117
vt 0.85466158 0.51043898
vt 0.85466158 0.50758117
vt 0.90558589 0.52900875
vt 0.96946245 0.52900875
vt 0.96946245 0.51929426
vt 0.90558589 0.51929426
vt 0.75401467 0.51043898
vt 0.75401467 0.50758117
vt 0.64098358 0.51043898
vt 0.64098358 0.50758117
vt 0.47825259 0.52900875
vt 0.65800661 0.52900875
vt 0.65800661 0.51929426
vt 0.47825259 0.51929426
vt 0.53017730 0.51043898
vt 0.53017730 0.50758117
vt 0.32354301 0.52900875
vt 0.32354301 0.51929426
vt 0.95693535 0.51043892
vt 0.95693535 0.50758111
vt 0.05029523 0.29745126
vt 0.04865601 0.34562176
vt 0.02263405 0.48917168
vt 0.01791127 0.46016967
vt 0.00966027 0.46492231
vt 0.00567769 0.50022900
vt 0.05485078 0.48191381
vt 0.05019417 0.45134264
vt 0.09324037 0.47673070
vt 0.08715039 0.44357014
vt 0.21785623 0.43966234
vt 0.18965796 0.43878472
vt 0.18985875 0.48171002
vt 0.21785630 0.48553228
vt 0.18975323 0.42465824
vt 0.14887759 0.42458081
vt 0.14882305 0.43780279
vt 0.18970929 0.41044819
vt 0.14934024 0.41044229
vt 0.53451061 0.29463226
vt 0.35023129 0.29895538
vt 0.34995013 0.35106230
vt 0.53450483 0.33500129
vt 0.27378154 0.29943871
vt 0.27373999 0.35304576
vt 0.21640950 0.29908019
vt 0.21601133 0.35228521
vt 0.13242905 0.29867518
vt 0.13086590 0.34746706
vt 0.06770789 0.29766029
vt 0.06553604 0.34842032
vt 0.04719095 0.38775951
vt 0.05176028 0.26769173
vt 0.12013649 0.42451161
vt 0.10403063 0.43692523
vt 0.21785623 0.42472756
vt 0.12256593 0.41043717
vt 0.21785623 0.41045344
vt 0.34969890 0.39111310
vt 0.53449959 0.36177558
vt 0.53451586 0.26648527
vt 0.35048252 0.26648527
vt 0.27370286 0.39389718
vt 0.27381867 0.26648527
vt 0.21565543 0.39277762
vt 0.21676540 0.26648527
vt 0.12946884 0.38295609
vt 0.13382612 0.26648527
vt 0.06359506 0.39724284
vt 0.06964886 0.26648527
vt 0.14882682 0.47811693
vt 0.44738692 0.44182974
vt 0.44738692 0.47034478
vt 0.46434331 0.47034478
vt 0.46434331 0.44182974
vt 0.49656004 0.47034478
vt 0.49656004 0.44182974
vt 0.53494972 0.47034478
vt 0.53494972 0.44182974
vt 0.59053618 0.47034478
vt 0.59053618 0.44182974
vt 0.63156801 0.44182974
vt 0.63156801 0.47034478
vt 0.65956551 0.47034478
vt 0.65956551 0.44182974
vt 0.87780666 0.44166350
vt 0.87780666 0.47017854
vt 0.92240018 0.47017854
vt 0.91311342 0.44166350
vt 0.86955565 0.44166350
vt 0.86955565 0.47017854
vt 0.76733053 0.44166356
vt 0.76733053 0.47017854
vt 0.78343636 0.47017854
vt 0.78343636 0.44166350
vt 0.47156656 0.06738460
vt 0.47156656 0.09589958
vt 0.48945516 0.09589958
vt 0.48945516 0.06738460
vt 0.75325608 0.44166350
vt 0.75325608 0.47017854
vt 0.42309743 0.00651038
vt 0.42309743 0.03502536
vt 0.60789818 0.03502536
vt 0.60789818 0.00651038
vt 0.34710151 0.00651038
vt 0.34710151 0.03502536
vt 0.28905404 0.00651038
vt 0.28905404 0.03502536
vt 0.20286749 0.00651038
vt 0.20286749 0.03502536
vt 0.13699365 0.00651038
vt 0.13699365 0.03502536
vt 0.12058944 0.00651038
vt 0.12058944 0.03502536
vt 0.09274287 0.00651038
vt 0.09274287 0.03502536
vt 0.05887207 0.00651038
vt 0.05887221 0.03502536
vt 0.02899284 0.00651038
vt 0.02899284 0.03502536
vt 0.51535535 0.09589958
vt 0.51535535 0.06738460
vt 0.00853618 0.00651038
vt 0.00853618 0.03502536
vt 0.40738928 0.06738460
vt 0.40738928 0.09589958
vt 0.32445002 0.06738460
vt 0.32445002 0.09589958
vt 0.26739681 0.06738460
vt 0.26739681 0.09589958
vt 0.19073288 0.06738460
vt 0.19073288 0.09589958
vt 0.00669955 0.06738460
vt 0.00669955 0.09589958
vt 0.73316562 0.44169474
vt 0.73316562 0.47020960
vt 0.74743980 0.47020960
vt 0.74743980 0.44169474
vt 0.71823090 0.44169474
vt 0.71823090 0.47020960
vt 0.67236096 0.44169474
vt 0.66307420 0.47020960
vt 0.83727288 0.44166350
vt 0.83727288 0.47017854
vt 0.80031657 0.44166350
vt 0.80031657 0.47017854
vt 0.06664967 0.53185022
vt 0.06664967 0.54207200
vt 0.08360617 0.54207200
vt 0.08360617 0.53185022
vt 0.11582300 0.54207200
vt 0.11582300 0.53185022
vt 0.02205651 0.53185028
vt 0.02205651 0.54207206
vt 0.82806164 0.53185022
vt 0.82806164 0.54207188
vt 0.15146188 0.54561329
vt 0.15146188 0.55583489
vt 0.13505766 0.54561329
vt 0.13505766 0.55583495
vt 0.76388443 0.53185022
vt 0.76388443 0.54207188
vt 0.33398563 0.53185022
vt 0.33398563 0.54207188
vt 0.85382408 0.59691525
vt 0.78706926 0.58916098
vt 0.77619934 0.71322882
vt 0.87684619 0.67810124
vt 0.44668245 0.76161516
vt 0.33905315 0.56691027
vt 0.09147380 0.56460690
vt 0.07386847 0.77100307
vt 0.55236191 0.75217581
vt 0.51880705 0.57219487
vt 0.66316831 0.73652816
vt 0.67351669 0.57953590
vt 0.94977599 0.64070457
vt 0.93132329 0.60871947
vt 0.97606623 0.62110430
vt 0.97537923 0.61798352
vt 0.02058777 0.50415277
vt 0.02058777 0.51386726
vt 0.05168379 0.51043898
vt 0.05168379 0.50758117
vt 0.20999047 0.52900875
vt 0.20999047 0.51929426
vt 0.42449778 0.50758117
vt 0.42449778 0.51043898
vt 0.02168047 0.52272260
vt 0.02168047 0.52558047
vt 0.04206220 0.78170049
vt 0.00680179 0.83026433
vt 0.00544617 0.95054507
vt 0.02688704 0.99214846
vt 0.02759730 0.56440508
vt 0.00615643 0.60600841
vt 0.00751205 0.72628921
vt 0.04277246 0.77485299
f 1/1/1 2/2/2 3/3/3
f 4/4/4 5/5/5 6/6/6
f 7/7/7 8/8/8 9/9/9
f 10/10/10 11/11/11 12/12/12
f 13/13/13 14/14/14 3/3/3
f 13/13/13 3/3/3 6/6/6
f 15/15/15 16/16/16 17/17/17
f 15/15/15 17/17/17 18/18/18
f 19/19/19 15/15/15 18/18/18
f 19/19/19 18/18/18 20/20/20
f 21/21/21 19/19/19 20/20/20
f 21/21/21 20/20/20 22/22/22
f 23/23/23 24/24/24 25/25/25
f 23/23/23 25/25/25 26/26/26
f 26/26/26 27/27/27 28/28/28
f 26/26/26 28/28/28 29/29/29
f 29/29/29 28/28/28 30/30/30
f 29/29/29 30/30/30 31/31/31
f 32/32/32 33/33/33 34/34/34
f 32/32/32 34/34/34 35/35/35
f 35/35/35 34/34/34 36/36/36
f 35/35/35 36/36/36 37/37/37
f 37/37/37 36/36/36 38/38/38
f 37/37/37 38/38/38 39/39/39
f 39/39/39 38/38/38 40/40/40
f 39/39/39 40/40/40 41/41/41
f 41/41/41 40/40/40 42/42/42
f 41/41/41 42/42/42 43/43/43
f 43/43/43 42/42/42 14/14/14
f 43/43/43 14/14/14 13/13/13
f 14/14/14 44/44/44 1/1/1
f 14/14/14 1/1/1 3/3/3
f 6/6/6 5/5/5 45/45/45
f 6/6/6 45/45/45 13/13/13
f 27/27/27 46/46/46 47/47/47
f 27/27/27 47/47/47 28/28/28
f 29/29/29 48/48/48 23/23/23
f 29/29/29 23/23/23 26/26/26
f 28/28/28 47/47/47 49/49/49
f 28/28/28 49/49/49 30/30/30
f 31/31/31 50/50/50 48/48/48
f 31/31/31 48/48/48 29/29/29
f 33/33/33 51/51/51 52/52/52
f 33/33/33 52/52/52 34/34/34
f 35/35/35 53/53/53 54/54/54
f 35/35/35 54/54/54 32/32/32
f 34/34/34 52/52/52 55/55/55
f 34/34/34 55/55/55 36/36/36
f 37/37/37 56/56/56 53/53/53
f 37/37/37 53/53/53 35/35/35
f 36/36/36 55/55/55 57/57/57
f 36/36/36 57/57/57 38/38/38
f 39/39/39 58/58/58 56/56/56
f 39/39/39 56/56/56 37/37/37
f 38/38/38 57/57/57 59/59/59
f 38/38/38 59/59/59 40/40/40
f 41/41/41 60/60/60 58/58/58
f 41/41/41 58/58/58 39/39/39
f 40/40/40 59/59/59 61/61/61
f 40/40/40 61/61/61 42/42/42
f 43/43/43 62/62/62 60/60/60
f 43/43/43 60/60/60 41/41/41
f 42/42/42 61/61/61 44/44/44
f 42/42/42 44/44/44 14/14/14
f 13/13/13 45/45/45 62/62/62
f 13/13/13 62/62/62 43/43/43
f 25/25/25 63/63/63 27/27/27
f 25/25/25 27/27/27 26/26/26
f 2/2/2 4/4/4 6/6/6
f 2/2/2 6/6/6 3/3/3
f 64/64/64 65/65/65 66/66/66
f 64/64/64 66/66/66 67/67/67
f 65/65/65 68/68/68 69/69/69
f 65/65/65 69/69/69 66/66/66
f 68/68/68 70/70/70 71/71/71
f 68/68/68 71/71/71 69/69/69
f 70/70/70 72/72/72 73/73/73
f 70/70/70 73/73/73 71/71/71
f 74/74/74 75/75/75 76/76/76
f 74/74/74 76/76/76 77/77/77
f 72/72/72 74/74/74 77/77/77
f 72/72/72 77/77/77 73/73/73
f 78/78/78 79/79/79 80/80/80
f 78/78/78 80/80/80 81/81/81
f 82/82/82 78/78/78 81/81/81
f 82/82/82 81/81/81 83/83/83
f 84/84/84 85/85/85 86/86/86
f 84/84/84 86/86/86 87/87/87
f 88/88/88 89/89/89 90/90/90
f 88/88/88 90/90/90 91/91/91
f 92/92/92 84/84/84 87/87/87
f 92/92/92 87/87/87 93/93/93
f 94/94/94 95/95/95 96/96/96
f 94/94/94 96/96/96 97/97/97
f 98/98/98 94/94/94 97/97/97
f 98/98/98 97/97/97 99/99/99
f 100/100/100 98/98/98 99/99/99
f 100/100/100 99/99/99 101/101/101
f 102/102/102 100/100/100 101/101/101
f 102/102/102 101/101/101 103/103/103
f 104/104/104 102/102/102 103/103/103
f 104/104/104 103/103/103 105/105/105
f 106/106/106 104/104/104 105/105/105
f 106/106/106 105/105/105 107/107/107
f 108/108/108 106/106/106 107/107/107
f 108/108/108 107/107/107 109/109/109
f 110/110/110 108/108/108 109/109/109
f 110/110/110 109/109/109 111/111/111
f 112/112/112 110/110/110 111/111/111
f 112/112/112 111/111/111 113/113/113
f 89/89/89 114/114/114 115/115/115
f 89/89/89 115/115/115 90/90/90
f 116/116/116 112/112/112 113/113/113
f 116/116/116 113/113/113 117/117/117
f 118/118/118 88/88/88 91/91/91
f 118/118/118 91/91/91 119/119/119
f 120/120/120 118/118/118 119/119/119
f 120/120/120 119/119/119 121/121/121
f 122/122/122 120/120/120 121/121/121
f 122/122/122 121/121/121 123/123/123
f 124/124/124 122/122/122 123/123/123
f 124/124/124 123/123/123 125/125/125
f 126/126/126 124/124/124 125/125/125
f 126/126/126 125/125/125 127/127/127
f 128/128/128 129/129/129 130/130/130
f 128/128/128 130/130/130 131/131/131
f 132/132/132 128/128/128 131/131/131
f 132/132/132 131/131/131 133/133/133
f 134/134/134 132/132/132 133/133/133
f 134/134/134 133/133/133 135/135/135
f 136/136/136 82/82/82 83/83/83
f 136/136/136 83/83/83 137/137/137
f 138/138/138 136/136/136 137/137/137
f 138/138/138 137/137/137 139/139/139
f 85/85/85 138/138/138 139/139/139
f 85/85/85 139/139/139 86/86/86
f 140/140/140 141/141/141 142/142/142
f 140/140/140 142/142/142 143/143/143
f 144/144/144 145/145/145 146/146/146
f 144/144/144 146/146/146 147/147/147
f 141/141/141 144/144/144 147/147/147
f 141/141/141 147/147/147 142/142/142
f 148/148/148 149/149/149 150/150/150
f 148/148/148 150/150/150 151/151/151
f 152/152/152 153/153/153 154/154/154
f 152/152/152 154/154/154 155/155/155
f 156/156/156 157/157/157 158/158/158
f 156/156/156 158/158/158 159/159/159
f 160/160/160 156/156/156 159/159/159
f 160/160/160 159/159/159 161/161/161
f 162/162/162 163/163/163 164/164/164
f 162/162/162 164/164/164 165/165/165
f 166/166/166 167/167/167 168/168/168
f 166/166/166 168/168/168 169/169/169
f 170/170/170 171/171/171 172/172/172
f 170/170/170 172/172/172 173/173/173
f 174/174/174 175/175/175 176/176/176
f 174/174/174 176/176/176 177/177/177
f 178/178/178 179/179/179 180/180/180
f 178/178/178 180/180/180 181/181/181
f 182/182/182 178/178/178 181/181/181
f 182/182/182 181/181/181 183/183/183
f 184/184/184 185/185/185 186/186/186
f 184/184/184 186/186/186 187/187/187
f 188/188/188 148/148/148 151/151/151
f 188/188/188 151/151/151 189/189/189
f 153/153/153 190/190/190 191/191/191
f 153/153/153 191/191/191 154/154/154
f 192/192/192 193/193/193 194/194/194
f 192/192/192 194/194/194 195/195/195
f 196/196/196 197/197/197 198/198/198
f 196/196/196 198/198/198 199/199/199
f 200/200/200 196/196/196 199/199/199
f 200/200/200 199/199/199 201/201/201
f 202/202/202 200/200/200 201/201/201
f 202/202/202 201/201/201 203/203/203
f 194/194/194 202/202/202 203/203/203
f 194/194/194 203/203/203 195/195/195
f 192/192/192 204/204/204 205/205/205
f 192/192/192 205/205/205 193/193/193
f 204/204/204 206/206/206 207/207/207
f 204/204/204 207/207/207 205/205/205
f 208/208/208 209/209/209 210/210/210
f 208/208/208 210/210/210 211/211/211
f 212/212/212 213/213/213 214/214/214
f 212/212/212 214/214/214 215/215/215
f 216/216/216 212/212/212 215/215/215
f 216/216/216 215/215/215 217/217/217
f 218/218/218 219/219/219 220/220/220
f 218/218/218 220/220/220 221/221/221
f 222/222/222 216/216/216 217/217/217
f 222/222/222 217/217/217 223/223/223
f 224/224/224 222/222/222 223/223/223
f 224/224/224 223/223/223 225/225/225
f 226/226/226 227/227/227 228/228/228
f 226/226/226 228/228/228 229/229/229
f 230/230/230 224/224/224 225/225/225
f 230/230/230 225/225/225 231/231/231
f 232/232/232 226/226/226 229/229/229
f 232/232/232 229/229/229 233/233/233
f 213/213/213 234/234/234 235/235/235
f 213/213/213 235/235/235 214/214/214
f 236/236/236 11/11/11 8/8/8
f 236/236/236 8/8/8 237/237/237
f 238/238/238 239/239/239 240/240/240
f 238/238/238 240/240/240 241/241/241
f 242/242/242 243/243/243 239/239/239
f 242/242/242 239/239/239 238/238/238
f 244/244/244 245/245/245 243/243/243
f 244/244/244 243/243/243 242/242/242
f 246/246/246 247/247/247 248/248/248
f 246/246/246 248/248/248 249/249/249
f 247/247/247 250/250/250 251/251/251
f 247/247/247 251/251/251 252/252/252
f 250/250/250 253/253/253 254/254/254
f 250/250/250 254/254/254 251/251/251
f 255/255/255 256/256/256 257/257/257
f 255/255/255 257/257/257 258/258/258
f 256/256/256 259/259/259 260/260/260
f 256/256/256 260/260/260 257/257/257
f 259/259/259 261/261/261 262/262/262
f 259/259/259 262/262/262 260/260/260
f 261/261/261 263/263/263 264/264/264
f 261/261/261 264/264/264 262/262/262
f 263/263/263 265/265/265 266/266/266
f 263/263/263 266/266/266 264/264/264
f 265/265/265 236/236/236 237/237/237
f 265/265/265 237/237/237 266/266/266
f 237/237/237 8/8/8 7/7/7
f 237/237/237 7/7/7 267/267/267
f 11/11/11 236/236/236 268/268/268
f 11/11/11 268/268/268 12/12/12
f 252/252/252 251/251/251 269/269/269
f 252/252/252 269/269/269 270/270/270
f 250/250/250 247/247/247 246/246/246
f 250/250/250 246/246/246 271/271/271
f 251/251/251 254/254/254 272/272/272
f 251/251/251 272/272/272 269/269/269
f 253/253/253 250/250/250 271/271/271
f 253/253/253 271/271/271 273/273/273
f 258/258/258 257/257/257 274/274/274
f 258/258/258 274/274/274 275/275/275
f 256/256/256 255/255/255 276/276/276
f 256/256/256 276/276/276 277/277/277
f 257/257/257 260/260/260 278/278/278
f 257/257/257 278/278/278 274/274/274
f 259/259/259 256/256/256 277/277/277
f 259/259/259 277/277/277 279/279/279
f 260/260/260 262/262/262 280/280/280
f 260/260/260 280/280/280 278/278/278
f 261/261/261 259/259/259 279/279/279
f 261/261/261 279/279/279 281/281/281
f 262/262/262 264/264/264 282/282/282
f 262/262/262 282/282/282 280/280/280
f 263/263/263 261/261/261 281/281/281
f 263/263/263 281/281/281 283/283/283
f 264/264/264 266/266/266 284/284/284
f 264/264/264 284/284/284 282/282/282
f 265/265/265 263/263/263 283/283/283
f 265/265/265 283/283/283 285/285/285
f 266/266/266 237/237/237 267/267/267
f 266/266/266 267/267/267 284/284/284
f 236/236/236 265/265/265 285/285/285
f 236/236/236 285/285/285 268/268/268
f 248/248/248 247/247/247 252/252/252
f 248/248/248 252/252/252 286/286/286
f 9/9/9 8/8/8 11/11/11
f 9/9/9 11/11/11 10/10/10
f 287/287/287 288/288/288 289/289/289
f 287/287/287 289/289/289 290/290/290
f 290/290/290 289/289/289 291/291/291
f 290/290/290 291/291/291 292/292/292
f 292/292/292 291/291/291 293/293/293
f 292/292/292 293/293/293 294/294/294
f 294/294/294 293/293/293 295/295/295
f 294/294/294 295/295/295 296/296/296
f 297/297/297 298/298/298 299/299/299
f 297/297/297 299/299/299 300/300/300
f 296/296/296 295/295/295 298/298/298
f 296/296/296 298/298/298 297/297/297
f 301/301/301 302/302/302 303/303/303
f 301/301/301 303/303/303 304/304/304
f 305/305/305 306/306/306 302/302/302
f 305/305/305 302/302/302 301/301/301
f 307/307/307 308/308/308 309/309/309
f 307/307/307 309/309/309 310/310/310
f 311/311/311 312/312/312 313/313/313
f 311/311/311 313/313/313 314/314/314
f 315/315/315 316/316/316 308/308/308
f 315/315/315 308/308/308 307/307/307
f 317/317/317 318/318/318 319/319/319
f 317/317/317 319/319/319 320/320/320
f 321/321/321 322/322/322 318/318/318
f 321/321/321 318/318/318 317/317/317
f 323/323/323 324/324/324 322/322/322
f 323/323/323 322/322/322 321/321/321
f 325/325/325 326/326/326 324/324/324
f 325/325/325 324/324/324 323/323/323
f 327/327/327 328/328/328 326/326/326
f 327/327/327 326/326/326 325/325/325
f 329/329/329 330/330/330 328/328/328
f 329/329/329 328/328/328 327/327/327
f 331/331/331 332/332/332 330/330/330
f 331/331/331 330/330/330 329/329/329
f 333/333/333 334/334/334 332/332/332
f 333/333/333 332/332/332 331/331/331
f 335/335/335 336/336/336 334/334/334
f 335/335/335 334/334/334 333/333/333
f 314/314/314 313/313/313 337/337/337
f 314/314/314 337/337/337 338/338/338
f 339/339/339 340/340/340 336/336/336
f 339/339/339 336/336/336 335/335/335
f 341/341/341 342/342/342 312/312/312
f 341/341/341 312/312/312 311/311/311
f 343/343/343 344/344/344 342/342/342
f 343/343/343 342/342/342 341/341/341
f 345/345/345 346/346/346 344/344/344
f 345/345/345 344/344/344 343/343/343
f 347/347/347 348/348/348 346/346/346
f 347/347/347 346/346/346 345/345/345
f 349/349/349 350/350/350 348/348/348
f 349/349/349 348/348/348 347/347/347
f 351/351/351 352/352/352 353/353/353
f 351/351/351 353/353/353 354/354/354
f 355/355/355 356/356/356 352/352/352
f 355/355/355 352/352/352 351/351/351
f 357/357/357 358/358/358 356/356/356
f 357/357/357 356/356/356 355/355/355
f 359/359/359 360/360/360 306/306/306
f 359/359/359 306/306/306 305/305/305
f 361/361/361 362/362/362 360/360/360
f 361/361/361 360/360/360 359/359/359
f 310/310/310 309/309/309 362/362/362
f 310/310/310 362/362/362 361/361/361
f 363/363/363 364/364/364 365/365/365
f 363/363/363 365/365/365 366/366/366
f 366/366/366 365/365/365 367/367/367
f 366/366/366 367/367/367 368/368/368
f 368/368/368 367/367/367 140/140/140
f 368/368/368 140/140/140 143/143/143
f 369/369/369 370/370/370 364/364/364
f 369/369/369 364/364/364 363/363/363
f 371/371/371 372/372/372 170/170/170
f 371/371/371 170/170/170 173/173/173
f 158/158/158 157/157/157 152/152/152
f 158/158/158 152/152/152 155/155/155
f 164/164/164 163/163/163 160/160/160
f 164/164/164 160/160/160 161/161/161
f 373/373/373 374/374/374 162/162/162
f 373/373/373 162/162/162 165/165/165
f 375/375/375 376/376/376 374/374/374
f 375/375/375 374/374/374 373/373/373
f 168/168/168 167/167/167 376/376/376
f 168/168/168 376/376/376 375/375/375
f 176/176/176 175/175/175 166/166/166
f 176/176/176 166/166/166 169/169/169
f 377/377/377 378/378/378 372/372/372
f 377/377/377 372/372/372 371/371/371
f 180/180/180 179/179/179 378/378/378
f 180/180/180 378/378/378 377/377/377
f 186/186/186 185/185/185 182/182/182
f 186/186/186 182/182/182 183/183/183
f 379/379/379 380/380/380 184/184/184
f 379/379/379 184/184/184 187/187/187
f 146/146/146 145/145/145 380/380/380
f 146/146/146 380/380/380 379/379/379
f 191/191/191 190/190/190 188/188/188
f 191/191/191 188/188/188 189/189/189
f 381/381/381 382/382/382 383/383/383
f 381/381/381 383/383/383 384/384/384
f 385/385/385 386/386/386 387/387/387
f 385/385/385 387/387/387 388/388/388
f 389/389/389 390/390/390 386/386/386
f 389/389/389 386/386/386 385/385/385
f 391/391/391 392/392/392 390/390/390
f 391/391/391 390/390/390 389/389/389
f 383/383/383 382/382/382 392/392/392
f 383/383/383 392/392/392 391/391/391
f 381/381/381 384/384/384 393/393/393
f 381/381/381 393/393/393 394/394/394
f 394/394/394 393/393/393 395/395/395
f 394/394/394 395/395/395 396/396/396
f 397/397/397 398/398/398 399/399/399
f 397/397/397 399/399/399 400/400/400
f 210/210/210 209/209/209 401/401/401
f 210/210/210 401/401/401 402/402/402
f 403/403/403 404/404/404 230/230/230
f 403/403/403 230/230/230 231/231/231
f 400/400/400 399/399/399 404/404/404
f 400/400/400 404/404/404 403/403/403
f 402/402/402 401/401/401 232/232/232
f 402/402/402 232/232/232 233/233/233
f 405/405/405 406/406/406 208/208/208
f 405/405/405 208/208/208 211/211/211
f 228/228/228 227/227/227 218/218/218
f 228/228/228 218/218/218 221/221/221
f 46/46/46 21/21/21 22/22/22
f 21/21/21 46/46/46 63/63/63
f 63/63/63 46/46/46 27/27/27
f 408/408/408 197/197/197 407/407/407
f 197/197/197 408/408/408 198/198/198
f 198/198/198 408/408/408 409/409/409
f 198/198/198 409/409/409 410/410/410
f 244/244/244 270/270/270 245/245/245
f 270/270/270 244/244/244 286/286/286
f 270/270/270 286/286/286 252/252/252
f 388/388/388 413/413/413 414/414/414
f 413/413/413 388/388/388 387/387/387
f 413/413/413 387/387/387 412/412/412
f 412/412/412 387/387/387 411/411/411

